<?xml version="1.0" standalone="no"?>
<!DOCTYPE svg PUBLIC "-//W3C//DTD SVG 20010904//EN"
 "http://www.w3.org/TR/2001/REC-SVG-20010904/DTD/svg10.dtd">
<svg version="1.0" xmlns="http://www.w3.org/2000/svg"
 width="400.000000pt" height="400.000000pt" viewBox="0 0 400.000000 400.000000"
 preserveAspectRatio="xMidYMid meet">
<metadata>
Created by potrace 1.16, written by Peter Selinger 2001-2019
</metadata>
<g transform="translate(0.000000,400.000000) scale(0.100000,-0.100000)"
fill="#000000" stroke="none">
<path d="M0 2000 l0 -2000 1070 0 1070 0 -2 778 -3 777 -258 0 -257 0 0 308 0
307 259 0 260 0 3 343 3 342 37 91 c47 117 102 198 186 272 85 75 176 125 277
152 72 20 112 23 398 27 l317 5 0 -276 0 -276 -193 0 c-217 0 -262 -8 -327
-60 -22 -18 -50 -53 -63 -79 -21 -43 -22 -62 -25 -293 l-3 -248 306 0 305 0
-5 -22 c-10 -44 -64 -444 -70 -518 l-6 -75 -262 0 -262 0 -3 -777 -2 -778 625
0 625 0 0 2000 0 2000 -2000 0 -2000 0 0 -2000z"/>
</g>
</svg>
