<?xml version="1.0" standalone="no"?>
<!DOCTYPE svg PUBLIC "-//W3C//DTD SVG 20010904//EN"
 "http://www.w3.org/TR/2001/REC-SVG-20010904/DTD/svg10.dtd">
<svg version="1.0" xmlns="http://www.w3.org/2000/svg"
 width="268.000000pt" height="188.000000pt" viewBox="0 0 268.000000 188.000000"
 preserveAspectRatio="xMidYMid meet">
<metadata>
Created by potrace 1.16, written by Peter Selinger 2001-2019
</metadata>
<g transform="translate(0.000000,188.000000) scale(0.100000,-0.100000)"
fill="#000000" stroke="none">
<path d="M600 940 l0 -340 50 0 50 0 0 145 0 145 80 0 80 0 0 45 0 45 -80 0
-80 0 0 105 0 105 95 0 95 0 0 45 0 45 -145 0 -145 0 0 -340z"/>
<path d="M1032 1264 c-18 -9 -43 -31 -55 -48 -21 -30 -22 -39 -22 -276 0 -241
0 -246 23 -278 22 -30 79 -69 88 -60 2 3 8 65 12 138 l9 134 -29 24 c-29 24
-29 24 -26 131 2 86 6 106 18 106 12 0 16 -18 18 -87 1 -49 7 -88 12 -88 5 0
11 39 12 88 2 69 6 87 18 87 12 0 16 -18 18 -87 1 -49 7 -88 12 -88 5 0 11 39
12 88 2 69 6 87 18 87 12 0 16 -20 18 -106 3 -107 3 -107 -26 -131 l-29 -24 9
-134 c4 -73 10 -136 13 -138 8 -8 68 33 89 61 20 27 21 43 24 263 3 260 -1
283 -61 326 -41 29 -129 35 -175 12z"/>
<path d="M1430 1257 c-67 -44 -75 -71 -78 -271 -5 -211 2 -274 31 -317 22 -33
83 -76 93 -66 4 3 9 63 13 134 l6 128 -31 31 c-50 51 -52 121 -4 198 24 40 57
53 88 37 30 -16 62 -90 62 -144 0 -40 -6 -53 -35 -85 l-34 -39 6 -131 c3 -73
8 -132 11 -132 22 0 76 39 94 69 22 35 23 44 23 273 0 224 -1 238 -21 265 -55
74 -155 97 -224 50z"/>
<path d="M1770 940 l0 -340 88 0 c105 0 164 24 197 80 18 31 20 56 23 239 4
226 -3 274 -47 314 -38 35 -83 47 -177 47 l-84 0 0 -340z m188 234 c22 -15 22
-19 22 -234 0 -215 0 -219 -22 -234 -12 -9 -39 -16 -60 -16 l-38 0 0 250 0
250 38 0 c21 0 48 -7 60 -16z"/>
</g>
</svg>
