<?xml version="1.0" standalone="no"?>
<!DOCTYPE svg PUBLIC "-//W3C//DTD SVG 20010904//EN"
 "http://www.w3.org/TR/2001/REC-SVG-20010904/DTD/svg10.dtd">
<svg version="1.0" xmlns="http://www.w3.org/2000/svg"
 width="256.000000pt" height="256.000000pt" viewBox="0 0 256.000000 256.000000"
 preserveAspectRatio="xMidYMid meet">
<metadata>
Created by potrace 1.16, written by Peter Selinger 2001-2019
</metadata>
<g transform="translate(0.000000,256.000000) scale(0.100000,-0.100000)"
fill="#000000" stroke="none">
<path d="M1035 2500 c-245 -50 -462 -167 -635 -340 -180 -179 -298 -408 -346
-665 -23 -125 -15 -395 15 -510 24 -90 74 -225 102 -271 l18 -30 -54 -198
c-30 -109 -55 -218 -55 -242 0 -86 51 -150 140 -174 41 -11 59 -8 266 45 l222
58 86 -37 c151 -65 259 -88 442 -93 238 -8 399 25 589 117 508 247 781 791
680 1355 -77 429 -406 806 -825 945 -184 62 -457 78 -645 40z m453 -126 c440
-79 803 -443 888 -890 24 -132 15 -365 -20 -492 -183 -659 -899 -1003 -1521
-730 -49 22 -99 42 -110 44 -11 3 -121 -22 -244 -55 -312 -83 -304 -91 -220
213 32 119 59 223 59 231 0 9 -17 50 -39 93 -46 92 -74 178 -97 291 -25 126
-15 362 20 490 157 563 707 908 1284 805z"/>
<path d="M1076 2204 c-352 -76 -647 -373 -720 -726 -10 -47 -16 -126 -16 -200
0 -176 24 -274 106 -443 54 -110 56 -145 13 -302 -18 -62 -30 -116 -27 -118 2
-2 64 12 138 31 157 40 175 39 293 -16 145 -68 228 -85 417 -85 191 0 250 12
397 80 114 54 169 91 257 174 117 113 208 263 257 426 30 101 38 331 14 446
-72 361 -370 660 -727 733 -97 20 -308 20 -402 0z m-123 -396 c9 -7 42 -73 72
-146 62 -151 62 -146 -9 -231 -20 -24 -36 -53 -36 -65 0 -28 65 -124 128 -189
86 -89 260 -197 319 -197 15 0 39 23 80 74 32 41 63 77 69 79 11 5 255 -104
282 -125 18 -15 14 -97 -7 -143 -22 -50 -68 -90 -140 -123 -47 -22 -63 -24
-130 -19 -144 10 -366 103 -495 207 -141 112 -288 296 -359 448 -25 55 -32 83
-35 155 -4 82 -3 91 27 151 17 35 49 80 71 100 35 32 46 36 93 36 29 0 61 -6
70 -12z"/>
</g>
</svg>
