<?xml version="1.0" standalone="no"?>
<!DOCTYPE svg PUBLIC "-//W3C//DTD SVG 20010904//EN"
 "http://www.w3.org/TR/2001/REC-SVG-20010904/DTD/svg10.dtd">
<svg version="1.0" xmlns="http://www.w3.org/2000/svg"
 width="512.000000pt" height="512.000000pt" viewBox="0 0 512.000000 512.000000"
 preserveAspectRatio="xMidYMid meet">
<metadata>
Created by potrace 1.16, written by Peter Selinger 2001-2019
</metadata>
<g transform="translate(0.000000,512.000000) scale(0.100000,-0.100000)"
fill="#000000" stroke="none">
<path d="M2235 5105 c-462 -60 -885 -237 -1255 -523 -117 -91 -316 -287 -413
-407 -276 -342 -459 -746 -537 -1186 -28 -156 -39 -531 -21 -702 82 -766 505
-1455 1156 -1880 324 -211 689 -344 1085 -393 152 -19 472 -18 630 1 1160 144
2081 1065 2225 2225 20 162 20 478 0 640 -92 744 -509 1411 -1140 1826 -329
216 -695 350 -1085 399 -152 18 -501 18 -645 0z m812 -1440 c432 -9 694 -33
807 -75 69 -26 161 -108 199 -178 61 -111 87 -315 94 -736 8 -480 -22 -815
-86 -951 -61 -131 -171 -204 -346 -230 -422 -62 -1869 -63 -2296 0 -52 8 -121
24 -153 35 -77 29 -166 113 -206 193 -58 120 -90 414 -90 837 0 402 32 711 85
827 33 74 115 157 189 193 73 36 185 55 416 71 196 13 796 27 995 22 77 -1
253 -5 392 -8z"/>
<path d="M2240 2560 c0 -264 3 -480 7 -480 10 0 833 474 833 480 0 6 -823 480
-833 480 -4 0 -7 -216 -7 -480z"/>
</g>
</svg>
